<svg width="48" height="48" viewBox="0 0 48 48" fill="none" xmlns="http://www.w3.org/2000/svg">
    <path d="M24 22.38L18.3 28.08C17.86 28.52 17.3096 28.74 16.6488 28.74C15.988 28.74 15.4184 28.52 14.94 28.08C14.46 27.6 14.22 27.0296 14.22 26.3688C14.22 25.708 14.46 25.1384 14.94 24.66L22.32 17.28C22.8 16.8 23.36 16.56 24 16.56C24.64 16.56 25.2 16.8 25.68 17.28L33.12 24.72C33.6 25.2 33.8296 25.76 33.8088 26.4C33.788 27.04 33.5384 27.6 33.06 28.08C32.58 28.52 32.02 28.7504 31.38 28.7712C30.74 28.792 30.18 28.5616 29.7 28.08L24 22.38ZM24 3.8147e-06C20.68 3.8147e-06 17.56 0.630402 14.64 1.8912C11.72 3.152 9.18 4.8616 7.02 7.02C4.86 9.18 3.1504 11.72 1.8912 14.64C0.632 17.56 0.0016 20.68 0 24C0 27.32 0.6304 30.44 1.8912 33.36C3.152 36.28 4.8616 38.82 7.02 40.98C9.18 43.14 11.72 44.8496 14.64 46.1088C17.56 47.368 20.68 47.9984 24 48C27.32 48 30.44 47.3696 33.36 46.1088C36.28 44.848 38.82 43.1384 40.98 40.98C43.14 38.82 44.8504 36.28 46.1112 33.36C47.372 30.44 48.0016 27.32 48 24C48 20.68 47.3696 17.56 46.1088 14.64C44.848 11.72 43.1384 9.18 40.98 7.02C38.82 4.86 36.28 3.1496 33.36 1.88881C30.44 0.628006 27.32 -0.00159836 24 3.8147e-06Z" fill="black"/>
</svg>
