<svg width="48" height="48" viewBox="0 0 48 48" fill="none" xmlns="http://www.w3.org/2000/svg">
    <path d="M24 25.62L18.3 19.92C17.86 19.48 17.3096 19.26 16.6488 19.26C15.988 19.26 15.4184 19.48 14.94 19.92C14.46 20.4 14.22 20.9704 14.22 21.6312C14.22 22.292 14.46 22.8616 14.94 23.34L22.32 30.72C22.8 31.2 23.36 31.44 24 31.44C24.64 31.44 25.2 31.2 25.68 30.72L33.12 23.28C33.6 22.8 33.8296 22.24 33.8088 21.6C33.788 20.96 33.5384 20.4 33.06 19.92C32.58 19.48 32.02 19.2496 31.38 19.2288C30.74 19.208 30.18 19.4384 29.7 19.92L24 25.62ZM24 48C20.68 48 17.56 47.3696 14.64 46.1088C11.72 44.848 9.18 43.1384 7.02 40.98C4.86 38.82 3.1504 36.28 1.8912 33.36C0.632 30.44 0.0016 27.32 0 24C0 20.68 0.6304 17.56 1.8912 14.64C3.152 11.72 4.8616 9.18 7.02 7.02C9.18 4.86 11.72 3.1504 14.64 1.8912C17.56 0.632 20.68 0.0016 24 0C27.32 0 30.44 0.6304 33.36 1.8912C36.28 3.152 38.82 4.8616 40.98 7.02C43.14 9.18 44.8504 11.72 46.1112 14.64C47.372 17.56 48.0016 20.68 48 24C48 27.32 47.3696 30.44 46.1088 33.36C44.848 36.28 43.1384 38.82 40.98 40.98C38.82 43.14 36.28 44.8504 33.36 46.1112C30.44 47.372 27.32 48.0016 24 48Z" fill="black"/>
</svg>